<svg xmlns="http://www.w3.org/2000/svg" viewBox="0 0 50 52"><path transform="translate(0 -130)" fill="#5249F4" d="M27.3117 136.95C27.1066 136.596 26.8122 136.303 26.458 136.099C26.1038 135.895 25.7021 135.787 25.2934 135.787C24.8846 135.787 24.483 135.895 24.1288 136.099C23.7746 136.303 23.4802 136.596 23.275 136.95L16.9424 147.865C16.723 148.243 16.4217 148.566 16.0607 148.812C15.6996 149.057 15.2881 149.219 14.8564 149.284L2.98671 151.076C0.99404 151.379 0.29404 153.895 1.84804 155.183L10.689 162.505C11.5057 163.184 11.8907 164.255 11.6924 165.298L9.38004 177.443C9.29792 177.874 9.33917 178.32 9.49905 178.729C9.65892 179.138 9.93094 179.493 10.2838 179.754C10.6367 180.016 11.0562 180.172 11.494 180.206C11.9318 180.239 12.3701 180.148 12.7587 179.944L23.9354 174.059C24.3541 173.839 24.8202 173.724 25.2934 173.724C25.7665 173.724 26.2326 173.839 26.6514 174.059L37.828 179.944C38.2166 180.148 38.655 180.239 39.0928 180.206C39.5306 180.172 39.95 180.016 40.3029 179.754C40.6558 179.493 40.9278 179.138 41.0877 178.729C41.2476 178.32 41.2888 177.874 41.2067 177.443L38.8944 165.298C38.7964 164.785 38.8378 164.255 39.0142 163.764C39.1907 163.273 39.4958 162.838 39.8977 162.505L48.741 155.18C50.2927 153.897 49.5927 151.377 47.5977 151.076L35.7327 149.284C35.3006 149.219 34.8886 149.058 34.5271 148.812C34.1656 148.567 33.864 148.243 33.6444 147.865L27.3117 136.95Z"/></svg>
